<svg width="52" height="50" viewBox="0 0 52 50" fill="none" xmlns="http://www.w3.org/2000/svg">
<style>
    #scale , #scale_1 , #scale_2 , #scale_3 , #scale_4 , #scale_5 {
        transform-origin: center;
        transform-box: fill-box;
    }

    #scale_1 , #scale_2 , #scale_3 , #scale_4 , #scale_5{
        animation: pulse 1s linear infinite;
    }
    #scale{
        animation: scale3d 1s linear infinite;
    }
    @keyframes pulse {
        0% {
            transform: scale3d(1, 1, 1);
            opacity: 1;
        }

        50% {
            transform: scale3d( .8, .8 , .8);
            opacity: .5;
        }

        100% {
            transform: scale3d(1, 1, 1);
            opacity: 1;
        }
    }

    @keyframes scale3d {
        0% {
            transform: scale3d(1, 1, 1);
        }

        50% {
            transform: scale3d( 1.8, 1.8 , 1.8);
        }

        100% {
            transform: scale3d(1, 1, 1);
        }
    }
</style>
<g id="feature">
<path id="scale" opacity="0.4" d="M26.861 24.348L25.861 21.829L24.861 24.348C24.7523 24.621 24.5685 24.8576 24.3308 25.0304C24.0931 25.2031 23.8112 25.305 23.518 25.324L20.813 25.498L22.898 27.231C23.124 27.4188 23.2922 27.6668 23.383 27.9463C23.4738 28.2258 23.4835 28.5252 23.411 28.81L22.742 31.436L25.035 29.987C25.2837 29.8309 25.5714 29.7481 25.865 29.7481C26.1586 29.7481 26.4463 29.8309 26.695 29.987L28.986 31.435L28.317 28.81C28.2445 28.5252 28.2542 28.2258 28.345 27.9463C28.4358 27.6668 28.6039 27.4188 28.83 27.231L30.915 25.498L28.215 25.324C27.9198 25.307 27.6357 25.2061 27.3958 25.0332C27.156 24.8604 26.9705 24.6227 26.861 24.348V24.348Z" fill="#B38224"/>
<path id="Path 21" d="M50.394 17.672L33.524 16.58L27.268 0.865003C27.1358 0.604786 26.9341 0.386249 26.6853 0.233601C26.4366 0.0809525 26.1504 0.000152588 25.8585 0.000152588C25.5666 0.000152588 25.2804 0.0809525 25.0317 0.233601C24.7829 0.386249 24.5812 0.604786 24.449 0.865003L18.191 16.579L1.42 17.672C1.11695 17.6917 0.826774 17.8019 0.58699 17.9882C0.347206 18.1746 0.168835 18.4286 0.0749331 18.7174C-0.0189684 19.0062 -0.0240831 19.3166 0.0602501 19.6083C0.144583 19.9001 0.314487 20.1598 0.548 20.354L13.448 31.154L9.275 47.548C9.20018 47.8423 9.21533 48.1522 9.31849 48.4378C9.42165 48.7234 9.60807 48.9714 9.85367 49.1499C10.0993 49.3285 10.3928 49.4292 10.6962 49.4392C10.9997 49.4492 11.2992 49.368 11.556 49.206L25.856 40.169L40.156 49.206C40.4128 49.368 40.7123 49.4492 41.0158 49.4392C41.3192 49.4292 41.6127 49.3285 41.8583 49.1499C42.1039 48.9714 42.2904 48.7234 42.3935 48.4378C42.4967 48.1522 42.5118 47.8423 42.437 47.548L38.262 31.159L51.262 20.359C51.4955 20.1648 51.6654 19.9051 51.7497 19.6133C51.8341 19.3216 51.829 19.0112 51.7351 18.7224C51.6412 18.4336 51.4628 18.1796 51.223 17.9932C50.9832 17.8069 50.6931 17.6967 50.39 17.677L50.394 17.672ZM35.664 25.427L31.432 28.941L32.79 34.27C32.8648 34.5643 32.8497 34.8742 32.7465 35.1598C32.6434 35.4454 32.4569 35.6934 32.2113 35.8719C31.9657 36.0505 31.6722 36.1512 31.3688 36.1612C31.0653 36.1712 30.7658 36.09 30.509 35.928L25.859 32.989L21.207 35.928C20.9502 36.09 20.6507 36.1712 20.3472 36.1612C20.0438 36.1512 19.7503 36.0505 19.5047 35.8719C19.2591 35.6934 19.0726 35.4454 18.9695 35.1598C18.8663 34.8742 18.8512 34.5643 18.926 34.27L20.284 28.941L16.052 25.427C15.8185 25.2328 15.6486 24.9731 15.5642 24.6813C15.4799 24.3896 15.485 24.0792 15.5789 23.7904C15.6728 23.5016 15.8512 23.2476 16.091 23.0613C16.3308 22.8749 16.6209 22.7647 16.924 22.745L22.415 22.389L24.45 17.279C24.5822 17.0188 24.7839 16.8002 25.0327 16.6476C25.2814 16.495 25.5676 16.4142 25.8595 16.4142C26.1514 16.4142 26.4376 16.495 26.6863 16.6476C26.9351 16.8002 27.1368 17.0188 27.269 17.279L29.304 22.389L34.793 22.745C35.0961 22.7647 35.3862 22.8749 35.626 23.0613C35.8658 23.2476 36.0442 23.5016 36.1381 23.7904C36.232 24.0792 36.2371 24.3896 36.1527 24.6813C36.0684 24.9731 35.8985 25.2328 35.665 25.427H35.664Z" fill="#B38224"/>
<path id="scale_1" opacity="0.4" d="M25.906 50.001C26.7642 50.001 27.46 49.3053 27.46 48.447C27.46 47.5888 26.7642 46.893 25.906 46.893C25.0477 46.893 24.352 47.5888 24.352 48.447C24.352 49.3053 25.0477 50.001 25.906 50.001Z" fill="#B38224"/>
<path id="scale_2" opacity="0.4" d="M47.4611 34.2584C47.7263 33.4421 47.2795 32.5654 46.4633 32.3002C45.647 32.0351 44.7703 32.4818 44.5052 33.298C44.24 34.1143 44.6867 34.991 45.503 35.2562C46.3192 35.5213 47.1959 35.0746 47.4611 34.2584Z" fill="#B38224"/>
<path id="scale_3" opacity="0.4" d="M39.6287 10.9872C40.1333 10.293 39.9796 9.32115 39.2853 8.81655C38.5911 8.31196 37.6192 8.4657 37.1146 9.15995C36.6101 9.85419 36.7638 10.826 37.458 11.3306C38.1523 11.8352 39.1241 11.6815 39.6287 10.9872Z" fill="#B38224"/>
<path id="scale_4" opacity="0.4" d="M14.3543 11.3274C15.0486 10.8228 15.2023 9.85098 14.6977 9.15674C14.1931 8.46249 13.2213 8.30875 12.527 8.81334C11.8328 9.31794 11.6791 10.2898 12.1836 10.984C12.6882 11.6783 13.6601 11.832 14.3543 11.3274Z" fill="#B38224"/>
<path id="scale_5" opacity="0.4" d="M6.30828 35.2608C7.12453 34.9956 7.57126 34.1189 7.30608 33.3026C7.04089 32.4864 6.16421 32.0397 5.34796 32.3048C4.5317 32.57 4.08498 33.4467 4.35016 34.263C4.61535 35.0792 5.49203 35.5259 6.30828 35.2608Z" fill="#B38224"/>
</g>
</svg>
