<svg width="50" height="50" viewBox="0 0 50 50" fill="none" xmlns="http://www.w3.org/2000/svg">
<style>
    #location_pin{
        transform-origin: center;
        transform-box: fill-box;
        animation: bounce-in-top 2s linear infinite
    }

    @keyframes bounce-in-top {
        0% {
            transform: translateY(3px);
            animation-timing-function: ease-in;
            opacity: 0;
        }
        38% {
            transform: translateY(0);
            animation-timing-function: ease-out;
            opacity: 1;
        }
        55% {
            transform: translateY(2px);
            animation-timing-function: ease-in;
        }
        72% {
            transform: translateY(0);
            animation-timing-function: ease-out;
        }
        81% {
            transform: translateY(1px);
            animation-timing-function: ease-in;
        }
        90% {
            transform: translateY(0);
            animation-timing-function: ease-out;
        }
        95% {
            transform: translateY(2px);
            animation-timing-function: ease-in;
        }
        100% {
            transform: translateY(0);
            animation-timing-function: ease-out;
        }
    }
</style>
<g id="location-pin">
<g id="location_pin">
<path id="Path 22" d="M13.559 23.895L23.859 37.635C23.9962 37.8064 24.1701 37.9447 24.368 38.0398C24.5658 38.1348 24.7825 38.1842 25.002 38.1842C25.2215 38.1842 25.4382 38.1348 25.6361 38.0398C25.8339 37.9447 26.0078 37.8064 26.145 37.635L36.445 23.895C38.5326 21.3043 39.665 18.0741 39.652 14.747C39.652 10.8616 38.1085 7.13529 35.3611 4.38789C32.6137 1.64048 28.8874 0.0970001 25.002 0.0970001C21.1166 0.0970001 17.3903 1.64048 14.6429 4.38789C11.8955 7.13529 10.352 10.8616 10.352 14.747C10.339 18.0741 11.4714 21.3043 13.559 23.895V23.895ZM25 7.422C26.4486 7.422 27.8646 7.85155 29.069 8.65632C30.2734 9.46109 31.2122 10.6049 31.7665 11.9432C32.3208 13.2815 32.4659 14.7541 32.1833 16.1748C31.9007 17.5956 31.2031 18.9006 30.1789 19.9249C29.1546 20.9491 27.8496 21.6467 26.4288 21.9293C25.0081 22.2119 23.5355 22.0668 22.1972 21.5125C20.8589 20.9582 19.7151 20.0194 18.9103 18.815C18.1055 17.6106 17.676 16.1946 17.676 14.746C17.6784 12.8043 18.4508 10.9428 19.8238 9.56978C21.1968 8.19678 23.0583 7.42438 25 7.422V7.422Z" fill="white"/>
<path id="Path 23" d="M25.001 19.141C25.87 19.1408 26.7194 18.8829 27.4419 18.4C28.1644 17.917 28.7274 17.2307 29.0598 16.4278C29.3922 15.6249 29.4791 14.7414 29.3094 13.8892C29.1398 13.0369 28.7212 12.254 28.1067 11.6396C27.4921 11.0252 26.7092 10.6068 25.8569 10.4374C25.0045 10.2679 24.1211 10.355 23.3183 10.6876C22.5154 11.0202 21.8292 11.5834 21.3464 12.3059C20.8637 13.0285 20.606 13.878 20.606 14.747C20.6076 15.912 21.0712 17.0289 21.8951 17.8526C22.719 18.6763 23.836 19.1397 25.001 19.141Z" fill="white"/>
</g>
<path id="Path 24" opacity="0.4" d="M1.465 50H48.535C48.7618 50.0002 48.9856 49.9478 49.1886 49.8468C49.3917 49.7458 49.5685 49.5989 49.7051 49.4179C49.8418 49.2369 49.9344 49.0266 49.9759 48.8036C50.0174 48.5806 50.0064 48.351 49.944 48.133L43.987 27.527C43.8995 27.2208 43.7146 26.9515 43.4604 26.7597C43.2062 26.5679 42.8964 26.4641 42.578 26.464H38.178L29.396 38.183C29.7845 38.183 30.1572 38.3374 30.4319 38.6121C30.7067 38.8868 30.861 39.2594 30.861 39.648C30.861 40.0365 30.7067 40.4092 30.4319 40.6839C30.1572 40.9586 29.7845 41.113 29.396 41.113H20.606C20.2175 41.113 19.8448 40.9586 19.5701 40.6839C19.2953 40.4092 19.141 40.0365 19.141 39.648C19.141 39.2594 19.2953 38.8868 19.5701 38.6121C19.8448 38.3374 20.2175 38.183 20.606 38.183L11.825 26.469H7.425C7.10656 26.4691 6.79681 26.5729 6.5426 26.7647C6.28839 26.9565 6.10354 27.2258 6.016 27.532L0.0559997 48.134C-0.00643305 48.352 -0.017353 48.5816 0.0241011 48.8046C0.0655552 49.0275 0.15825 49.2379 0.294873 49.4189C0.431497 49.5999 0.608314 49.7467 0.811377 49.8477C1.01444 49.9488 1.2382 50.0012 1.465 50.001V50ZM34.219 35.683L37.149 32.753C37.285 32.6169 37.4465 32.509 37.6243 32.4354C37.8021 32.3618 37.9926 32.3239 38.185 32.324H41.115C41.5035 32.324 41.8762 32.4783 42.1509 32.7531C42.4257 33.0278 42.58 33.4005 42.58 33.789C42.58 34.1775 42.4257 34.5502 42.1509 34.8249C41.8762 35.0997 41.5035 35.254 41.115 35.254H38.791L36.291 37.754C36.1565 37.8963 35.9947 38.0103 35.8154 38.089C35.6361 38.1678 35.4428 38.2098 35.247 38.2126C35.0511 38.2153 34.8567 38.1788 34.6752 38.1051C34.4938 38.0314 34.3289 37.9221 34.1904 37.7836C34.0519 37.6451 33.9426 37.4802 33.8689 37.2988C33.7952 37.1173 33.7587 36.9229 33.7615 36.7271C33.7642 36.5312 33.8062 36.3379 33.885 36.1586C33.9637 35.9792 34.0777 35.8175 34.22 35.683H34.219ZM35.255 41.113H41.114C41.5025 41.113 41.8752 41.2673 42.1499 41.5421C42.4247 41.8168 42.579 42.1895 42.579 42.578C42.579 42.9665 42.4247 43.3392 42.1499 43.6139C41.8752 43.8886 41.5025 44.043 41.114 44.043H35.255C34.8665 44.043 34.4938 43.8886 34.2191 43.6139C33.9443 43.3392 33.79 42.9665 33.79 42.578C33.79 42.1895 33.9443 41.8168 34.2191 41.5421C34.4938 41.2673 34.8665 41.113 35.255 41.113ZM8.887 32.324H11.817C12.2052 32.3241 12.5775 32.4784 12.852 32.753L15.782 35.683C15.9243 35.8175 16.0383 35.9792 16.117 36.1586C16.1958 36.3379 16.2378 36.5312 16.2405 36.7271C16.2433 36.9229 16.2068 37.1173 16.1331 37.2988C16.0594 37.4802 15.9501 37.6451 15.8116 37.7836C15.6731 37.9221 15.5082 38.0314 15.3268 38.1051C15.1453 38.1788 14.9509 38.2153 14.755 38.2126C14.5592 38.2098 14.3659 38.1678 14.1866 38.089C14.0073 38.0103 13.8455 37.8963 13.711 37.754L11.211 35.254H8.887C8.49846 35.254 8.12583 35.0997 7.85109 34.8249C7.57635 34.5502 7.422 34.1775 7.422 33.789C7.422 33.4005 7.57635 33.0278 7.85109 32.7531C8.12583 32.4783 8.49846 32.324 8.887 32.324V32.324ZM8.887 41.113H14.746C15.1345 41.113 15.5072 41.2673 15.7819 41.5421C16.0567 41.8168 16.211 42.1895 16.211 42.578C16.211 42.9665 16.0567 43.3392 15.7819 43.6139C15.5072 43.8886 15.1345 44.043 14.746 44.043H8.887C8.49846 44.043 8.12583 43.8886 7.85109 43.6139C7.57635 43.3392 7.422 42.9665 7.422 42.578C7.422 42.1895 7.57635 41.8168 7.85109 41.5421C8.12583 41.2673 8.49846 41.113 8.887 41.113V41.113Z" fill="white"/>
</g>
</svg>
