<svg width="50" height="50" viewBox="0 0 50 50" fill="none" xmlns="http://www.w3.org/2000/svg">
<style>
    #price{
        transform-origin: center;
        transform-box: fill-box;
        animation: translateX 3s linear infinite 
    }

    @keyframes translateX {

        0%,
        100% {
            transform: translateX(0px) translateY(0) rotate(0deg);  
        }

        50% {
            transform: translateX(10px) translateY(10px) rotate(-46deg);
        }
    }
</style>
<g id="price-tag">
<path id="Path 17" opacity="0.4" d="M49.708 18.164L47.086 14.664L45.627 24.87C45.4907 25.8107 45.0548 26.6825 44.384 27.356L26.43 45.31C25.6608 46.083 24.746 46.6957 23.7384 47.1126C22.7308 47.5296 21.6505 47.7425 20.56 47.739C19.9056 47.7388 19.2535 47.6619 18.617 47.51C19.1019 48.2714 19.7708 48.8983 20.5621 49.3329C21.3533 49.7674 22.2413 49.9954 23.144 49.996H44.628C46.052 49.9944 47.4172 49.428 48.4241 48.4211C49.431 47.4142 49.9974 46.049 49.999 44.625V19.043C49.9996 18.7262 49.8975 18.4178 49.708 18.164V18.164Z" fill="#B38224"/>
<g id="price">
<path id="Ellipse 1" d="M30.228 24.337C31.0371 24.337 31.693 23.6811 31.693 22.872C31.693 22.0629 31.0371 21.407 30.228 21.407C29.4189 21.407 28.763 22.0629 28.763 22.872C28.763 23.6811 29.4189 24.337 30.228 24.337Z" fill="#B38224"/>
<path id="Ellipse 2" d="M13.655 24.337C14.4641 24.337 15.12 23.6811 15.12 22.872C15.12 22.0629 14.4641 21.407 13.655 21.407C12.8459 21.407 12.19 22.0629 12.19 22.872C12.19 23.6811 12.8459 24.337 13.655 24.337Z" fill="#B38224"/>
<g id="Group 1">
<path id="Path 18" d="M24.359 43.242L42.312 25.288C42.5361 25.0637 42.6813 24.7728 42.726 24.459L44.8 9.95799C44.8322 9.73289 44.8115 9.50338 44.7397 9.28764C44.6678 9.07189 44.5467 8.87584 44.386 8.71499L41.277 5.60799L37.134 9.75099L38.17 10.787C38.3124 10.9215 38.4264 11.0831 38.5053 11.2624C38.5841 11.4417 38.6262 11.635 38.629 11.8308C38.6319 12.0267 38.5955 12.2211 38.5219 12.4026C38.4483 12.5841 38.339 12.749 38.2006 12.8876C38.0622 13.0261 37.8974 13.1355 37.7159 13.2093C37.5345 13.2831 37.3401 13.3197 37.1443 13.317C36.9484 13.3144 36.7551 13.2725 36.5757 13.1938C36.3964 13.1151 36.2346 13.0013 36.1 12.859L31.955 8.71499C31.6802 8.44023 31.5259 8.06757 31.5259 7.67899C31.5259 7.29042 31.6802 6.91776 31.955 6.64299C32.2298 6.36823 32.6024 6.21387 32.991 6.21387C33.3796 6.21387 33.7522 6.36823 34.027 6.64299L35.062 7.67999L39.205 3.53699L36.1 0.428994C35.9389 0.268025 35.7425 0.146803 35.5264 0.0749414C35.3103 0.00307986 35.0804 -0.0174452 34.855 0.0149939L20.355 2.08699C20.0412 2.13167 19.7503 2.27693 19.526 2.50099L1.571 20.454C0.563908 21.4622 -0.00177574 22.829 -0.00177574 24.254C-0.00177574 25.679 0.563908 27.0458 1.571 28.054L16.763 43.242C17.7712 44.2491 19.138 44.8148 20.563 44.8148C21.988 44.8148 23.3548 44.2491 24.363 43.242H24.359ZM30.229 18.477C31.0982 18.477 31.948 18.7348 32.6707 19.2177C33.3935 19.7006 33.9568 20.387 34.2894 21.1901C34.6221 21.9932 34.7091 22.8769 34.5395 23.7294C34.37 24.582 33.9514 25.3651 33.3367 25.9797C32.7221 26.5944 31.939 27.013 31.0864 27.1825C30.2339 27.3521 29.3502 27.2651 28.5471 26.9324C27.744 26.5998 27.0576 26.0365 26.5747 25.3137C26.0918 24.591 25.834 23.7412 25.834 22.872C25.8353 21.7069 26.2987 20.59 27.1224 19.7661C27.9461 18.9422 29.063 18.4786 30.228 18.477H30.229ZM13.655 27.266C12.7857 27.266 11.936 27.0082 11.2133 26.5253C10.4905 26.0424 9.9272 25.356 9.59455 24.5529C9.2619 23.7498 9.17487 22.8661 9.34445 22.0136C9.51403 21.161 9.93261 20.3779 10.5473 19.7633C11.1619 19.1486 11.945 18.73 12.7976 18.5604C13.6501 18.3909 14.5338 18.4779 15.3369 18.8105C16.14 19.1432 16.8264 19.7065 17.3093 20.4293C17.7922 21.152 18.05 22.0017 18.05 22.871C18.0487 24.0362 17.5852 25.1533 16.7613 25.9773C15.9373 26.8012 14.8202 27.2647 13.655 27.266V27.266ZM18.489 34.695C18.257 34.6948 18.0283 34.6395 17.8218 34.5337C17.6153 34.4279 17.4368 34.2746 17.3011 34.0863C17.1654 33.8981 17.0763 33.6804 17.0412 33.451C17.0061 33.2216 17.0259 32.9872 17.099 32.767L24 12.05C24.1293 11.6898 24.3945 11.3946 24.7387 11.2274C25.0829 11.0601 25.4789 11.0343 25.8419 11.1552C26.205 11.2762 26.5063 11.5344 26.6814 11.8747C26.8565 12.215 26.8916 12.6102 26.779 12.976L19.879 33.693C19.7817 33.9847 19.5951 34.2384 19.3456 34.4182C19.0962 34.598 18.7965 34.6949 18.489 34.695V34.695Z" fill="#B38224"/>
<path id="Path 19" d="M44.384 2.5C44.6507 2.22361 44.7981 1.85356 44.7947 1.46951C44.7912 1.08546 44.637 0.718139 44.3654 0.44663C44.0937 0.175122 43.7263 0.021143 43.3423 0.0178458C42.9582 0.0145486 42.5883 0.162197 42.312 0.429001L39.205 3.536L41.277 5.608L44.384 2.5Z" fill="#B38224"/>
</g>
</g>
</g>
</svg>
