<svg width="378" height="371" viewBox="0 0 378 371" fill="none" xmlns="http://www.w3.org/2000/svg">
<style>
    #man , #translate , #Path_167 { 
        transform-origin: center;
        transform-box: fill-box;
    }

    #man{
        animation: translateSVG 3s linear infinite
    }

    #translate , #Path_167{
        animation: translateX 3s linear infinite
    }

    @keyframes translateX {

        0%,
        100% {
            transform: translateX(2px);
        }

        50% {
            transform: translateX(-2px);
        }
    }

    @keyframes translateSVG {

        0%,
        100% {
            transform: translateY(0px);
        }

        50% {
            transform: translateY(5px);
        }
    }
</style>
<g id="Mask Group 2">
<g id="Group 106">
<path id="Path_167" d="M314.026 306.453C312.306 303.125 310.932 299.63 309.926 296.021V296.021L307.017 222.086C307.017 222.086 307.246 215.257 307.866 205.528C307.555 205.444 307.244 205.358 306.931 205.276C307.038 205.262 307.145 205.254 307.252 205.242C306.997 205.13 306.732 205.009 306.452 204.873C306.447 203.073 306.464 201.262 306.512 199.525C306.512 199.508 306.512 199.49 306.512 199.473C306.521 199.15 306.532 198.829 306.543 198.511V198.483C306.554 198.163 306.567 197.845 306.582 197.531C306.582 197.497 306.582 197.464 306.582 197.431C306.595 197.161 306.608 196.895 306.622 196.631C306.622 196.578 306.628 196.525 306.63 196.471C306.646 196.181 306.663 195.895 306.682 195.613C306.682 195.578 306.687 195.544 306.689 195.513C306.705 195.271 306.722 195.032 306.741 194.796C306.741 194.782 306.741 194.767 306.741 194.753L297.508 190.353C297.508 190.353 294.526 180.659 303.002 153.604C304.641 148.664 306.655 143.857 309.027 139.224C309.027 139.224 306.487 131.765 304.034 129.504C301.581 127.243 300.548 126.847 300.612 124.746C300.661 122.188 300.891 119.637 301.301 117.111C301.876 113.268 302.014 114.022 303.168 110.686C303.768 108.949 304.995 110.373 305.025 111.186C305.253 111.398 305.43 111.66 305.542 111.951C305.653 112.241 305.697 112.554 305.669 112.864C305.653 113.778 305.502 114.683 305.22 115.552C305.312 117.149 305.495 118.739 305.769 120.314C306.198 122.661 305.869 123.857 306.393 124.469C306.917 125.081 309.564 125.817 310.46 127.269C310.61 124.79 310.484 122.301 310.083 119.849C309.417 115.628 309.227 115.824 310.398 114.607C310.398 114.607 310.073 111.264 310.384 110.561C310.695 109.858 311.715 110.171 311.715 110.171C311.715 110.171 311.789 108.896 312.589 108.81C313.389 108.724 313.94 110.248 313.94 110.248C314.28 110.211 314.622 110.278 314.923 110.44C315.224 110.602 315.467 110.853 315.622 111.157C316.341 112.276 317.457 118.384 318.168 119.434C318.355 119.162 318.631 118.963 318.948 118.871C319.266 118.78 319.605 118.802 319.908 118.934C320.981 119.417 321.736 122.185 322.808 122.634C322.808 122.634 326.243 117.512 326.744 114.608C327.245 111.704 327.281 112.573 325.578 111.884C323.875 111.195 322.626 110.399 322.953 108.037C323.28 105.675 324.305 102.773 323.499 101.232C322.693 99.6912 321.492 99.8782 322.436 98.3802C322.827 97.6245 323.425 96.9955 324.16 96.5663C324.16 96.5663 323.648 91.2662 325.471 88.2242C327.294 85.1822 335.461 79.4622 343.371 82.9762C343.371 82.9762 352.827 84.3242 358.883 108.292C364.939 132.26 368.229 137.902 370.699 150.577C373.169 163.252 374.405 227.042 374.405 227.042C375.153 231.783 375.78 236.551 376.222 241.265C377.942 261.028 377.864 280.907 375.99 300.656C355.328 302.298 334.89 306.102 314.528 310.012L314.026 306.453Z" fill="url(#paint0_linear_377_33)"/>
<path id="translate" d="M156.996 205.745C156.2 204.953 155.651 203.947 155.414 202.849C155.178 201.75 155.265 200.607 155.664 199.557C155.689 199.492 155.719 199.429 155.754 199.368C155.743 199.33 155.73 199.293 155.719 199.254C155.661 198.966 155.717 198.666 155.874 198.418C156.031 198.169 156.279 197.991 156.564 197.921C156.85 197.85 157.152 197.892 157.407 198.039C157.662 198.185 157.851 198.424 157.934 198.706C158.242 199.715 158.827 200.618 159.621 201.312C159.993 201.67 160.389 202.002 160.794 202.322C160.878 202.388 160.966 202.451 161.053 202.516C161.047 202.472 161.045 202.428 161.048 202.383C161.002 202.249 160.985 202.106 160.998 201.964C161.012 201.823 161.055 201.686 161.126 201.562C160.836 201.01 160.623 200.42 160.492 199.81C160.203 198.373 162.417 197.821 162.707 199.262C163.007 200.752 163.982 201.892 164.668 203.213C165.354 204.534 165.268 206.32 166.207 207.474C167.254 208.497 168.528 209.258 169.925 209.695C171.49 210.35 173.085 210.924 174.7 211.442C174.843 211.162 175.01 210.894 175.2 210.642C175.932 209.723 176.714 208.842 177.48 207.95C178.639 206.602 179.812 205.264 180.997 203.938C180.353 203.959 179.712 203.857 179.106 203.638C177.063 202.776 177.228 199.79 175.52 198.604C174.832 198.442 173.22 198.257 173.82 197.089C174.776 195.231 175.251 193.163 175.201 191.073C175.024 189.532 175.263 187.972 175.892 186.553C176.707 185.17 177.829 183.992 179.172 183.111C180.588 182.051 182.287 181.438 184.053 181.348C187.321 181.448 190.507 183.337 191.737 185.866C192.504 187.444 192.299 189.317 192.189 191.008C192.067 192.908 191.835 194.785 191.541 196.661C191.601 196.758 191.647 196.863 191.678 196.973C192.15 198.716 194.12 199.502 195.486 200.445C197.225 201.751 198.773 203.293 200.086 205.027C201.49 206.56 202.597 208.341 203.35 210.278C203.931 212.455 204.263 214.69 204.34 216.941C205.244 226.946 205.239 237.011 204.324 247.014C203.811 252.619 203.005 258.193 201.944 263.721C201.918 263.858 201.867 263.989 201.792 264.106C200.318 278.608 200.825 293.242 203.299 307.606C203.35 307.887 203.297 308.176 203.148 308.419C203 308.662 202.767 308.842 202.494 308.924C203.299 309.724 202.66 311.399 201.468 310.859C197.41 309.021 190.991 314.724 187.032 312.68C183.486 310.85 180.446 315.455 178.054 312.208C175.576 308.844 175.602 297.369 175.219 293.308C174.772 288.572 175.693 277.164 175.279 272.425C174.995 269.171 174.719 265.915 174.452 262.659C174.234 263.063 173.908 263.399 173.511 263.629C172.782 264.038 171.924 264.143 171.188 264.562C170.386 265.026 169.692 265.656 169.153 266.409C169.147 266.418 169.139 266.426 169.133 266.435C168.722 267.353 167.175 267.535 167.009 266.33C166.057 259.421 167.571 252.648 168.123 245.78C168.659 239.045 167.913 232.269 165.923 225.812C165.845 225.728 165.78 225.633 165.729 225.53C163.773 221.864 161.143 218.598 157.978 215.904C156.602 214.798 155.677 213.228 155.378 211.488C155.249 209.639 155.677 207.792 156.607 206.188C156.691 206.006 156.826 205.852 156.996 205.745ZM163.833 213.472C164.137 214.289 164.35 215.137 164.469 216C164.669 217.079 165.789 217.719 166.584 218.425C167.152 218.925 167.729 219.425 168.302 219.925C169.682 219.168 171.353 218.016 170.066 217.216C169.922 217.134 169.8 217.018 169.71 216.879C169.62 216.74 169.565 216.581 169.549 216.416C167.278 214.936 165.114 213.299 163.071 211.516C163.262 212.191 163.517 212.846 163.833 213.472V213.472ZM158.965 210.272C159.097 210.639 160.453 213.255 160.993 212.85C161.026 212.826 161.059 212.804 161.093 212.783C160.775 211.858 160.704 210.866 160.887 209.904C160.907 209.814 160.938 209.727 160.978 209.643C160.527 209.227 160.078 208.805 159.631 208.378C159.472 208.233 159.362 208.042 159.315 207.831C159.173 207.725 159.033 207.618 158.895 207.509C158.598 208.41 158.623 209.387 158.965 210.271V210.272Z" fill="url(#paint1_linear_377_33)"/>
<g id="man">
<path id="Path 169" d="M312.178 309.466C312.178 309.466 310.335 319.184 295.258 315.874C280.181 312.564 237.892 318.448 232.009 311.829C226.126 305.21 222.332 292.69 222.332 292.69L235.687 268.804L259.587 272.849L288.27 290.868L296.961 289.196C296.961 289.196 302.282 287.696 306.793 293.939L311.304 300.185C312.455 303.137 312.757 306.352 312.176 309.466" fill="#382923"/>
<path id="Path 170" d="M267.657 39.0603C267.295 35.8073 268.178 33.2423 269.438 30.3153C273.91 19.9303 271.299 4.32931 258.902 0.960308C254.878 -0.0170435 250.71 -0.250887 246.602 0.270306C230.532 1.93231 232.882 19.3053 232.882 19.3053L230.508 23.9943C230.508 23.9943 229.608 25.9353 233.585 26.3773C233.585 26.3773 232.397 31.2273 233.885 31.2273C233.564 31.6368 233.389 32.1423 233.389 32.6628C233.389 33.1833 233.564 33.6889 233.885 34.0983C233.71 35.5098 233.643 36.9326 233.685 38.3543C233.785 40.3343 236.567 41.5713 245.871 44.9373L243.749 48.8073L240.503 52.9273L238.519 60.3533L238.88 71.5303C238.88 71.5303 239.327 78.7153 243.387 76.9383C253.446 72.5383 252.942 71.5303 252.942 71.5303L261.235 55.6653L267.658 39.0653" fill="#602320"/>
<path id="Path 171" opacity="0.6" d="M268.265 29.4943C271.748 20.7753 270.8 8.65631 263.198 2.83031C271.85 8.25531 273.335 21.2653 269.438 30.3153C268.178 33.2423 267.296 35.8063 267.657 39.0593C267.657 39.0603 265.8 35.6653 268.265 29.4943Z" fill="#F9C430"/>
<g id="Group 97">
<path id="Path 172" d="M230.6 96.9153C230.6 96.9153 223.631 92.9353 216.33 87.7953C209.029 82.6553 209.36 79.3363 205.709 76.6833C202.058 74.0303 199.403 69.7173 197.246 68.7233C195.089 67.7293 193.264 68.7233 193.596 70.0513C193.928 71.3793 198.409 76.5203 198.409 76.5203C198.409 76.5203 193.267 78.3463 190.28 75.8593C190.28 75.8593 190.445 72.2093 188.288 70.5513C186.131 68.8933 186.629 73.0403 186.629 73.0403C186.629 73.0403 185.629 68.7273 183.475 67.7323C181.321 66.7373 182.148 69.3913 182.148 69.3913C181.889 68.8588 181.489 68.4074 180.992 68.0859C180.495 67.7643 179.919 67.585 179.327 67.5673C177.004 67.2363 180.656 73.3733 184.638 77.0223C188.62 80.6713 191.938 85.3153 200.9 88.1323C209.862 90.9493 229.443 117.654 229.443 117.654L230.6 96.9153Z" fill="#602320"/>
<path id="Path 173" opacity="0.6" d="M179.328 67.5663C179.428 67.5813 179.528 67.6013 179.628 67.6203C179.554 71.7203 183.24 75.3413 186.028 78.3403C185.57 77.8903 185.112 77.4483 184.645 77.0213C180.657 73.3723 177.006 67.2343 179.328 67.5663Z" fill="#FCA92D"/>
<path id="Path 174" d="M199.871 76.0673L198.41 76.5183C198.41 76.5183 193.929 71.3763 193.597 70.0493C193.544 69.8504 193.544 69.6411 193.596 69.442C193.649 69.243 193.753 69.0611 193.897 68.9143C195.426 71.6492 197.452 74.075 199.871 76.0673V76.0673Z" fill="#FFDE17"/>
<path id="Path 175" d="M211.379 89.9423C211.379 89.9423 208.842 88.4623 203.979 82.9643C199.116 77.4663 198.479 81.9073 192.772 79.1583C187.065 76.4093 197.847 86.9823 202.287 87.4053C205.423 87.8158 208.484 88.67 211.379 89.9423Z" fill="#602320"/>
<path id="Path 176" opacity="0.6" d="M198.409 76.5153C199.621 76.2344 200.867 76.1303 202.109 76.2063C199.604 74.4976 197.463 72.3091 195.809 69.7673C195.482 69.2153 195.183 68.7613 194.909 68.3853C195.705 68.2399 196.526 68.3571 197.249 68.7193C199.406 69.7143 202.061 74.0263 205.712 76.6793C209.363 79.3323 209.032 82.6513 216.333 87.7913C217.496 88.6103 218.65 89.3993 219.769 90.1473L219.254 91.3893C218.746 91.0273 210.214 88.9733 207.174 84.7653C202.816 78.7313 191.632 78.8223 190.283 75.8543C193.267 78.3453 198.409 76.5153 198.409 76.5153Z" fill="#FCA92D"/>
<path id="Path 177" d="M190.276 75.8573V75.4353C190.287 75.6963 190.276 75.8573 190.276 75.8573Z" fill="#00AEEF"/>
<path id="Path 178" d="M203.476 76.2073C201.781 76.1694 200.086 76.2734 198.409 76.5183C198.409 76.5183 193.928 71.3763 193.596 70.0493C193.396 69.2613 193.965 68.5943 194.906 68.3873C195.18 68.7643 196.466 68.6723 198.275 70.6053C200.209 72.6723 203.476 76.2073 203.476 76.2073Z" fill="#602320"/>
<path id="Path 179" opacity="0.6" d="M186.627 73.0383C186.627 73.0383 187.437 76.6663 188.7 78.2563C188.7 78.2563 186.54 72.5903 187.4 70.1453C187.398 70.1453 186.391 69.9403 186.627 73.0383Z" fill="#FCA92D"/>
<path id="Path 180" opacity="0.6" d="M182.15 69.3903C182.15 69.3903 181.53 67.4143 182.711 67.5373C182.711 67.5373 181.692 69.1673 185.442 75.5673C185.442 75.5663 182.729 72.0183 182.15 69.3903Z" fill="#FCA92D"/>
<path id="Path 181" d="M192.773 79.1583C192.773 79.1583 200.342 78.4844 204.044 81.1074C207.746 83.7304 205.278 85.2723 217.155 92.9843L214.07 94.8353L207.437 88.9733L202.287 87.4053C202.287 87.4053 188.904 79.9863 192.773 79.1583Z" fill="#602320"/>
</g>
<path id="Path 182" opacity="0.6" d="M230.509 23.9893L232.881 19.3043V19.2723V19.2403C232.881 19.2213 232.881 19.2013 232.874 19.1733C232.867 19.1453 232.874 19.1293 232.867 19.1053C232.86 19.0813 232.861 19.0493 232.858 19.0153C232.855 18.9813 232.852 18.9473 232.848 18.9093L232.839 18.7983C232.839 18.7533 232.832 18.7063 232.828 18.6563C232.824 18.6063 232.822 18.5713 232.819 18.5273C232.816 18.4833 232.812 18.4153 232.808 18.3543C232.804 18.2933 232.803 18.2543 232.8 18.2023C232.797 18.1503 232.793 18.0703 232.79 18.0023C232.79 17.9513 232.79 17.8973 232.785 17.8443C232.775 17.5693 232.77 17.2623 232.771 16.9253C232.771 16.8523 232.771 16.7823 232.771 16.7063C232.771 16.6303 232.771 16.5233 232.777 16.4313C232.783 16.3393 232.777 16.2693 232.784 16.1863C232.791 16.1033 232.792 15.9953 232.796 15.8973C232.8 15.7993 232.804 15.7203 232.81 15.6293C232.816 15.5383 232.822 15.4293 232.829 15.3293C232.836 15.2293 232.843 15.1363 232.851 15.0383C232.859 14.9403 232.868 14.8383 232.878 14.7323C232.888 14.6263 232.899 14.5243 232.91 14.4193C232.921 14.3143 232.932 14.2143 232.945 14.1093C232.958 14.0043 232.975 13.8763 232.991 13.7583C233.004 13.6583 233.016 13.5643 233.031 13.4653C233.031 13.4513 233.031 13.4393 233.037 13.4253C233.668 9.27231 235.658 4.02529 241.437 1.55629C240.388 2.10026 239.451 2.83676 238.675 3.72731C237.996 4.43629 237.378 5.20098 236.827 6.01332C235.94 7.30257 235.247 8.71446 234.768 10.2043C234.366 11.3215 234.11 12.4863 234.008 13.6693C234.144 14.6033 234.846 14.0473 235.377 14.8423C235.543 15.2427 235.609 15.6774 235.569 16.109C235.529 16.5405 235.385 16.9559 235.149 17.3193C234.234 19.2023 232.267 22.6353 231.649 23.7423C231.557 23.9063 231.526 24.0978 231.563 24.2823C231.6 24.4668 231.701 24.6321 231.849 24.7483C232.525 25.2187 233.313 25.5036 234.133 25.5743C234.171 25.5792 234.207 25.5919 234.239 25.6116C234.272 25.6314 234.3 25.6576 234.322 25.6888C234.343 25.72 234.358 25.7553 234.366 25.7926C234.373 25.8298 234.372 25.8682 234.364 25.9053C234.131 26.9103 233.477 30.1633 234.732 30.2893C234.732 30.2893 235.586 30.7893 239.576 29.9163C239.576 29.9163 234.348 31.5213 235.126 33.5073C235.181 33.6627 235.191 33.8307 235.153 33.9913C234.953 34.9753 234.369 38.2033 235.215 39.2363C236.215 40.4603 242.835 42.8673 247.624 44.1363C247.924 44.2163 248.253 43.7513 244.795 48.8493C243.831 50.2703 241.375 54.3153 240.223 55.6493C239.243 56.7813 239.241 54.8623 238.7 55.4333L245.192 45.1333C234.392 42.0123 233.792 40.3433 233.692 38.3633C233.65 36.9416 233.717 35.5188 233.892 34.1073C233.571 33.6978 233.396 33.1924 233.396 32.6718C233.396 32.1513 233.571 31.6458 233.892 31.2363C232.407 31.2363 233.592 26.3863 233.592 26.3863C229.607 25.9303 230.509 23.9893 230.509 23.9893Z" fill="#FCA92D"/>
<path id="Path 183" opacity="0.6" d="M261.045 13.4873C261.045 13.4873 263.285 13.0503 264.218 14.7153C264.812 15.9766 265.064 17.3717 264.949 18.761C264.835 20.1503 264.357 21.4853 263.565 22.6323C264.584 21.8135 265.341 20.7145 265.743 19.4707C266.145 18.2269 266.175 16.8926 265.828 15.6323C264.591 11.2473 261.045 13.4873 261.045 13.4873Z" fill="#F9C430"/>
<path id="Path 184" d="M275.329 290.133L278.747 326.026L259.947 325.741L250.831 266.489L243.994 271.901L249.406 328.02L232.314 328.305L224.338 283.866L238.296 259.083L261.085 255.383L274.759 276.183L275.329 290.133Z" fill="#3B1C19"/>
<path id="Path 185" d="M213.205 152.503C213.868 141.222 214.105 129.982 213.93 118.691C213.805 110.708 214.112 102.516 216.59 94.8603C219.133 87.0023 224.333 80.2383 226.4 72.2023C230.409 56.6123 238.552 50.1823 238.552 50.1823L241.952 68.0253L245.293 71.1433C245.293 71.1433 256.211 46.1993 262.666 40.8563C269.121 35.5133 277.366 36.6243 277.366 36.6243C283.616 37.6943 289.291 40.9261 293.401 45.7553C298.906 52.3623 305.319 66.6803 307.401 71.5153C307.621 72.0248 307.722 72.5779 307.697 73.1324C307.671 73.687 307.519 74.2283 307.253 74.7153C304.515 79.8541 301.371 84.7667 297.853 89.4063C297.853 89.4063 286.514 95.9063 282.42 103.049C280.949 105.615 304.009 162.168 310.738 214.334C314.617 245.903 315.1 277.796 312.178 309.467C312.378 307.467 312.706 301.284 305.578 299.173C266.647 287.638 252.391 278.98 252.391 278.98C243.681 284.919 222.331 292.692 222.331 292.692L214.811 191.331C214.811 191.331 214.799 181.931 215.188 168.521C214.577 168.302 213.929 168.045 213.214 167.728C213.011 162.326 212.948 156.89 213.205 152.503Z" fill="#947A6C"/>
<path id="Path 186" opacity="0.4" d="M290.12 163.391C289.92 162.6 289.717 161.809 289.512 161.019C285.583 145.887 279.398 131.437 275.752 116.249C273.376 106.349 273.773 93.6813 282.879 89.3253C285.629 88.0034 288.595 87.1874 291.635 86.9163C291.173 89.1394 291.133 91.4293 291.516 93.6673C288.206 96.1733 284.435 99.5323 282.416 103.048C280.945 105.614 304.005 162.167 310.734 214.333C314.613 245.902 315.096 277.795 312.174 309.466C312.374 307.466 312.702 301.283 305.574 299.172C304.533 298.864 303.514 298.558 302.508 298.253C302.981 298.396 304.008 256.367 303.681 252.47C303.339 247.561 302.614 242.687 301.51 237.891C300.475 233.416 298.771 229.123 296.456 225.155C291.341 216.616 279.39 207.63 275.83 198.136C287.392 207.299 293.565 210.878 302.275 214.045C300.963 213.561 300.195 207.107 299.929 205.984C296.617 191.983 293.694 177.509 290.12 163.391Z" fill="#FCC442"/>
<path id="Path 187" opacity="0.3" d="M273.789 36.5923C274.979 36.4897 276.177 36.4998 277.365 36.6223C283.615 37.6923 289.291 40.9241 293.4 45.7533C298.905 52.3603 305.318 66.6783 307.4 71.5133C307.624 72.0219 307.727 72.5755 307.701 73.1307C307.676 73.6859 307.522 74.2276 307.252 74.7133C306.439 76.3533 303.001 82.1573 301.261 84.7133C299.169 58.5003 289.253 46.2493 273.789 36.5923Z" fill="#FCC442"/>
<path id="Path 188" d="M281.923 102.233L283.323 114.923C283.274 115.185 283.151 115.427 282.968 115.621C282.785 115.814 282.55 115.951 282.291 116.014C282.032 116.077 281.761 116.063 281.509 115.975C281.258 115.887 281.037 115.729 280.874 115.518C278.537 112.491 274.887 106.874 274.887 101.318L281.923 102.233Z" fill="#602320"/>
<g id="Path 189" style="mix-blend-mode:multiply">
<path d="M299.772 73.7533C301.528 73.2611 303.332 72.9594 305.153 72.8533C307.973 72.7193 297.701 87.2203 297.701 87.2203L299.772 73.7533Z" fill="#947A6C"/>
</g>
<path id="Path 190" d="M243.688 47.5663C243.688 47.5663 242.555 59.8663 243.526 68.6133L232.841 63.7563C232.841 63.7563 241.098 50.1563 243.688 47.5663Z" fill="#947A6C"/>
<g id="Path 191" style="mix-blend-mode:multiply" opacity="0.44">
<path d="M273.633 80.0583C273.633 80.0583 278.044 77.0403 289.653 71.9323C301.262 66.8243 281.295 75.1823 273.865 73.3253C266.435 71.4683 273.165 64.2703 273.165 64.2703C273.165 64.2703 275.022 60.7873 266.432 69.1463C257.842 77.5053 261.788 63.8063 261.788 63.8063C261.788 63.8063 256.912 74.4863 254.358 76.1113C251.804 77.7363 265.275 86.3243 265.275 86.3243" fill="#947A6C"/>
</g>
<path id="Path 192" d="M214.976 65.1773C224.083 73.2933 230.814 70.3233 242.692 80.8143C256.947 96.2553 284.465 108.989 289.084 107.273C293.703 105.557 296.079 104.897 297.53 94.7353C298.981 84.5733 299.772 73.7503 299.772 73.7503C299.772 73.7503 285.387 76.6503 278.656 79.0303L278.524 80.8783C278.524 80.8783 272.453 79.0313 260.443 74.1483C248.433 69.2653 242.097 64.6483 241.569 60.0283C240.462 50.3483 239.325 49.2063 237.477 46.3023C236.324 44.4913 235.634 43.2963 235.277 42.6533C235.177 42.4687 235.016 42.3238 234.822 42.2429C234.629 42.162 234.413 42.1497 234.211 42.2083C233.35 42.4693 232.111 43.2583 232.462 45.6423C232.99 49.2053 238.006 54.6163 232.99 54.7483C232.99 54.7483 230.567 54.4143 224.054 49.9483C217.541 45.4823 215.008 44.1603 212.954 44.5223C212.954 44.5223 209.818 46.5733 219.954 51.9993C219.954 51.9993 214.527 49.1053 210.788 46.5723C207.049 44.0393 207.773 48.5023 209.823 49.8293C209.823 49.8293 208.496 52.1213 209.461 53.5683C210.161 54.5826 210.926 55.5497 211.753 56.4633C211.753 56.4633 210.899 57.2782 211.874 60.2022C212.655 62.0056 213.7 63.6824 214.976 65.1773V65.1773Z" fill="#602320"/>
<path id="Path 193" opacity="0.84" d="M224.054 49.9523C225.962 51.2603 227.517 52.2103 228.765 52.9043C223.66 50.5398 218.775 47.7289 214.165 44.5043C216.083 44.7633 218.747 46.3173 224.054 49.9523Z" fill="#F9C430"/>
<path id="Path 194" opacity="0.6" d="M297.728 74.1783C298.997 73.9093 299.772 73.7523 299.772 73.7523C299.772 73.7523 298.98 84.5743 297.529 94.7363C296.167 104.27 293.992 105.436 289.914 106.965C297.955 99.3033 296.735 85.1873 297.728 74.1783Z" fill="#F9C430"/>
<path id="Path 195" opacity="0.6" d="M242.292 63.2743C242.867 65.4137 244.175 67.2834 245.987 68.5573C248.987 70.4573 252.152 72.1173 255.306 73.7573C265.436 78.8453 276.125 82.7336 287.157 85.3433C284.4 83.6343 281.514 82.1434 278.525 80.8843C278.525 80.8843 272.454 79.0363 260.444 74.1533C248.434 69.2703 242.474 64.9963 241.571 60.0313C241.735 61.1278 241.976 62.2115 242.292 63.2743Z" fill="#F9C430"/>
<path id="Path 197" d="M219.953 52.0043C219.653 51.8523 219.335 51.6783 219.003 51.4883C219.595 51.8133 219.953 52.0043 219.953 52.0043Z" fill="#D7634E"/>
<g id="Group 104" opacity="0.6">
<g id="Group 103" opacity="0.6">
<g id="Group 100" opacity="0.6">
<path id="Path 198" opacity="0.6" d="M212.508 45.3563C214.957 48.7173 219.953 52.0043 219.953 52.0043C219.407 51.7123 218.906 51.4313 218.435 51.1583C217.65 50.6913 216.819 50.1633 216.035 49.6463C212.977 47.5203 212.428 46.1413 212.508 45.3563Z" fill="#FCA92D"/>
</g>
<g id="Group 101" opacity="0.6">
<path id="Path 199" opacity="0.6" d="M209.822 49.8333C209.115 49.3303 208.587 48.615 208.315 47.7913C210.52 49.7826 212.859 51.6203 215.315 53.2913C213.347 52.3718 211.502 51.2102 209.822 49.8333Z" fill="#FCA92D"/>
</g>
<g id="Group 102" opacity="0.6">
<path id="Path 200" opacity="0.6" d="M213.954 57.6173C213.307 57.4107 212.694 57.1094 212.136 56.7233V56.7233C212.136 56.7233 211.362 61.2753 216.199 66.2113C215.794 65.8853 215.386 65.5463 214.971 65.1773C213.696 63.6835 212.652 62.0081 211.871 60.2063C210.896 57.2823 211.75 56.4673 211.75 56.4673C211.75 56.4673 211.605 56.3083 211.377 56.0463C210.689 55.2606 210.048 54.4349 209.458 53.5733C209.277 53.256 209.161 52.9055 209.117 52.5426C209.073 52.1797 209.102 51.8117 209.203 51.4603C210.078 53.9731 211.745 56.1338 213.954 57.6173V57.6173Z" fill="#FCA92D"/>
</g>
</g>
</g>
<path id="Path 201" opacity="0.6" d="M236.244 53.8833C235.806 55.8993 232.99 54.7493 232.99 54.7493C238.005 54.6173 232.99 49.2063 232.462 45.6433C232.213 43.9643 232.756 43.0783 233.399 42.6083C233.13 43.2739 233.018 43.9922 233.07 44.7081C233.122 45.424 233.337 46.1185 233.699 46.7383C235.192 49.8893 236.683 51.8673 236.244 53.8833Z" fill="#FCA92D"/>
<g id="Path 202" style="mix-blend-mode:multiply" opacity="0.27">
<path d="M249.722 171.019C249.722 171.019 244.61 142.862 242.443 116.592C241.692 104.952 241.328 91.1103 242.692 80.8143C242.692 80.8143 240.2 113.843 246.919 140.714C249.981 152.687 252.412 164.812 254.201 177.04C254.244 177.342 254.21 177.651 254.1 177.935C253.99 178.22 253.809 178.472 253.574 178.666C253.338 178.861 253.057 178.992 252.757 179.046C252.457 179.101 252.148 179.078 251.859 178.978C242.733 175.862 233.493 173.111 224.14 170.723C233.94 269.705 252.393 278.977 252.393 278.977C226.826 288.018 224.479 289.205 225.265 281.93C225.816 276.83 229.454 266.43 231.584 260.659C231.633 260.525 231.633 260.377 231.584 260.242C231.535 260.107 231.439 259.994 231.315 259.923C231.19 259.852 231.044 259.827 230.903 259.854C230.762 259.88 230.635 259.955 230.544 260.066C227.431 263.908 222.267 268.666 221.726 261.481C216.944 197.933 216.512 172.869 216.473 168.857C215.586 168.664 214.721 168.383 213.89 168.018C216.61 167.616 219.36 167.457 222.108 167.541C233.774 170.808 248.468 175.198 249.722 171.019Z" fill="#141232"/>
</g>
<path id="Path 203" opacity="0.3" d="M244.184 159.777C239.845 135.579 239.072 110.876 241.891 86.4533C242.055 84.5605 242.322 82.6781 242.691 80.8143C241.327 91.1143 241.691 104.952 242.442 116.592C244.61 142.862 249.721 171.019 249.721 171.019C248.467 175.198 233.773 170.808 222.107 167.543C219.929 166.933 217.856 166.362 215.996 165.894C203.814 162.826 246.223 170.824 244.184 159.777Z" fill="#FCC442"/>
<path id="Path 204" opacity="0.6" d="M224.14 170.725C224.727 180.139 225.699 189.53 226.964 198.882C227.58 203.561 228.31 208.224 229.08 212.882C229.868 217.537 230.741 222.177 231.698 226.803C233.575 236.072 236.018 245.217 239.013 254.187C240.523 258.676 242.325 263.062 244.408 267.315C245.467 269.435 246.646 271.491 247.941 273.475C248.269 273.968 248.594 274.462 248.948 274.937L249.468 275.656L250.018 276.356C250.758 277.277 251.551 278.154 252.393 278.983C249.375 275.372 246.919 271.327 245.109 266.983C244.147 264.844 243.272 262.666 242.462 260.463C241.652 258.26 240.891 256.04 240.187 253.8C238.782 249.32 237.515 244.797 236.387 240.231C235.242 235.673 234.196 231.089 233.249 226.48C232.271 221.88 231.392 217.257 230.555 212.626C229.703 207.997 228.943 203.352 228.185 198.704C227.444 194.054 226.738 189.398 226.065 184.734C225.36 180.073 224.753 175.401 224.14 170.725Z" fill="#EC7820"/>
</g>
<path id="Path 205" d="M356.959 288.276C356.959 288.276 156.612 289.968 0 370.028H356.959V288.276Z" fill="url(#paint2_linear_377_33)"/>
<path id="Path 206" d="M91.3569 323.51C90.5269 321.066 90.801 318.09 92.832 316.31C95.694 313.799 99.474 315.818 102.637 314.76C105.432 313.826 106.773 311.798 109.616 311.823C108.005 309.854 106.528 307.778 105.195 305.61C104.224 303.933 104.369 302.549 104.165 300.679C103.606 295.552 98.2769 292.418 96.7869 287.567C96.758 287.458 96.7496 287.345 96.762 287.233C96.7625 287.071 96.8157 286.913 96.9135 286.783C97.0114 286.654 97.1486 286.559 97.3046 286.514C97.4606 286.469 97.627 286.476 97.7789 286.533C97.9308 286.591 98.0599 286.696 98.147 286.833C98.9109 288.183 99.8687 289.414 100.99 290.486C101.528 290.998 102.105 291.468 102.715 291.892C102.88 292.007 103.048 292.119 103.242 292.236C103.251 291.748 103.162 291.263 102.979 290.81C102.946 290.713 102.936 290.609 102.95 290.507C102.964 290.405 103.001 290.308 103.058 290.222C102.922 290.079 102.806 289.932 102.658 289.792C101.958 289.132 103.014 288.077 103.713 288.736C105.321 290.325 106.441 292.341 106.94 294.545C107.687 297.03 110.502 299.29 112.574 301.227C113.491 298.77 114.744 296.451 116.298 294.338C116.151 293.874 115.575 291.991 115.428 291.527C113.284 291.845 111.537 292.083 109.908 290.105C109.624 289.825 109.398 289.491 109.244 289.123C109.09 288.754 109.01 288.359 109.01 287.96C109.01 287.561 109.09 287.165 109.244 286.797C109.398 286.429 109.624 286.095 109.908 285.814C110.169 285.452 110.303 285.014 110.29 284.568C110.281 284.356 110.227 284.147 110.133 283.957C110.039 283.766 109.907 283.596 109.744 283.459C109.645 283.416 109.541 283.387 109.434 283.374C108.62 283.197 108.523 282.493 109.016 281.907C109.344 281.618 109.643 281.296 109.908 280.948C110.204 280.352 110.44 279.728 110.613 279.085C110.81 278.38 111.057 277.69 111.352 277.02C111.761 276.033 112.412 275.166 113.246 274.498C113.846 272.925 114.921 270.39 116.479 269.655C117.666 269.095 119.164 269.968 120.255 270.455C122.552 271.497 124.658 272.917 126.486 274.655C126.553 274.713 126.608 274.785 126.647 274.865C126.687 274.945 126.709 275.032 126.714 275.121C126.718 275.21 126.704 275.299 126.674 275.383C126.643 275.466 126.595 275.543 126.534 275.607C126.563 275.703 126.569 275.805 126.549 275.903C126.53 276.002 126.486 276.094 126.422 276.171C124.837 278.573 123.889 281.338 123.669 284.207C123.777 284.718 123.941 285.216 124.158 285.691C124.894 287.178 126.135 287.541 127.466 288.3C129.294 289.31 130.914 290.656 132.242 292.267C133.391 292.548 134.598 292.468 135.7 292.039C136.802 291.61 137.745 290.851 138.401 289.867C140.117 287.259 138.818 285.721 136.642 284.247C136.473 284.145 136.351 283.982 136.301 283.791C136.251 283.601 136.277 283.398 136.374 283.226C138.207 280.551 136.1 277.557 137.405 274.818C138.14 273.276 139.505 272.951 140.851 272.083C142.292 271.156 143.226 269.918 145.075 270.157C147.26 270.439 149.375 272.491 150.944 273.948C151.133 274.001 151.297 274.12 151.405 274.284C151.513 274.447 151.558 274.645 151.533 274.839C150.957 279.005 149.175 282.806 153.494 285.639C154.908 286.412 156.26 287.293 157.538 288.274C160.719 291.152 162.199 296.428 163.232 300.444C165.426 308.977 166.364 320.03 160.132 327.044C160.105 327.068 160.076 327.09 160.045 327.109C160.017 327.228 159.955 327.336 159.866 327.42C159.777 327.504 159.665 327.56 159.545 327.58C147.204 330.459 134.699 332.584 122.099 333.942C115.854 334.551 109.579 334.785 103.306 334.642C101.019 334.583 94.0169 335.568 93.3209 332.251C93.3209 332.234 93.3209 332.22 93.3209 332.203C93.2516 332.097 93.2137 331.973 93.2116 331.846C93.2095 331.718 93.2432 331.593 93.309 331.484C94.704 329.005 94.992 329.168 93.241 326.832C92.4429 325.83 91.8071 324.709 91.3569 323.51V323.51Z" fill="url(#paint3_linear_377_33)"/>
</g>
</g>
<defs>
<linearGradient id="paint0_linear_377_33" x1="357.181" y1="-217.679" x2="208.634" y2="270.916" gradientUnits="userSpaceOnUse">
<stop stop-color="#E38DDD"/>
<stop offset="0.004" stop-color="#B38224"/>
<stop offset="1" stop-color="#C9942D"/>
</linearGradient>
<linearGradient id="paint1_linear_377_33" x1="192.482" y1="7.96088" x2="111.115" y2="293.748" gradientUnits="userSpaceOnUse">
<stop stop-color="#E38DDD"/>
<stop offset="0.004" stop-color="#B38224"/>
<stop offset="1" stop-color="#C9942D"/>
</linearGradient>
<linearGradient id="paint2_linear_377_33" x1="267.005" y1="180.936" x2="262.311" y2="372.087" gradientUnits="userSpaceOnUse">
<stop stop-color="#E38DDD"/>
<stop offset="0.004" stop-color="#B38224"/>
<stop offset="1" stop-color="#C9942D"/>
</linearGradient>
<linearGradient id="paint3_linear_377_33" x1="146.253" y1="183.787" x2="131.939" y2="335.116" gradientUnits="userSpaceOnUse">
<stop stop-color="#E38DDD"/>
<stop offset="0.004" stop-color="#B38224"/>
<stop offset="1" stop-color="#C9942D"/>
</linearGradient>
</defs>
</svg>
